<svg id="visual" viewBox="0 0 1920 1080" width="1920" height="1080" xmlns="http://www.w3.org/2000/svg" xmlns:xlink="http://www.w3.org/1999/xlink" version="1.1"><path d="M0 260L175 260L175 357L349 357L349 444L524 444L524 379L698 379L698 260L873 260L873 336L1047 336L1047 163L1222 163L1222 303L1396 303L1396 357L1571 357L1571 249L1745 249L1745 163L1920 163L1920 347L1920 0L1920 0L1745 0L1745 0L1571 0L1571 0L1396 0L1396 0L1222 0L1222 0L1047 0L1047 0L873 0L873 0L698 0L698 0L524 0L524 0L349 0L349 0L175 0L175 0L0 0Z" fill="#392282"></path><path d="M0 573L175 573L175 595L349 595L349 627L524 627L524 595L698 595L698 487L873 487L873 627L1047 627L1047 552L1222 552L1222 735L1396 735L1396 671L1571 671L1571 584L1745 584L1745 627L1920 627L1920 681L1920 345L1920 161L1745 161L1745 247L1571 247L1571 355L1396 355L1396 301L1222 301L1222 161L1047 161L1047 334L873 334L873 258L698 258L698 377L524 377L524 442L349 442L349 355L175 355L175 258L0 258Z" fill="#781988"></path><path d="M0 692L175 692L175 800L349 800L349 843L524 843L524 735L698 735L698 703L873 703L873 746L1047 746L1047 757L1222 757L1222 811L1396 811L1396 822L1571 822L1571 757L1745 757L1745 811L1920 811L1920 811L1920 679L1920 625L1745 625L1745 582L1571 582L1571 669L1396 669L1396 733L1222 733L1222 550L1047 550L1047 625L873 625L873 485L698 485L698 593L524 593L524 625L349 625L349 593L175 593L175 571L0 571Z" fill="#ac0085"></path><path d="M0 973L175 973L175 1016L349 1016L349 984L524 984L524 930L698 930L698 908L873 908L873 919L1047 919L1047 973L1222 973L1222 973L1396 973L1396 1016L1571 1016L1571 1005L1745 1005L1745 941L1920 941L1920 919L1920 809L1920 809L1745 809L1745 755L1571 755L1571 820L1396 820L1396 809L1222 809L1222 755L1047 755L1047 744L873 744L873 701L698 701L698 733L524 733L524 841L349 841L349 798L175 798L175 690L0 690Z" fill="#da0079"></path><path d="M0 1081L175 1081L175 1081L349 1081L349 1081L524 1081L524 1081L698 1081L698 1081L873 1081L873 1081L1047 1081L1047 1081L1222 1081L1222 1081L1396 1081L1396 1081L1571 1081L1571 1081L1745 1081L1745 1081L1920 1081L1920 1081L1920 917L1920 939L1745 939L1745 1003L1571 1003L1571 1014L1396 1014L1396 971L1222 971L1222 971L1047 971L1047 917L873 917L873 906L698 906L698 928L524 928L524 982L349 982L349 1014L175 1014L175 971L0 971Z" fill="#ff0066"></path></svg>